Coordinates
version=1
nRows=24
nColumns=24
inDegrees=yes

Units are S.I. units (second, meters, Newtons, ...)
Angles are in degrees.

endheader
time	pelvis_tilt	pelvis_list	pelvis_rotation	pelvis_tx	pelvis_ty	pelvis_tz	hip_flexion_r	hip_adduction_r	hip_rotation_r	knee_angle_r	ankle_angle_r	subtalar_angle_r	mtp_angle_r	hip_flexion_l	hip_adduction_l	hip_rotation_l	knee_angle_l	ankle_angle_l	subtalar_angle_l	mtp_angle_l	lumbar_extension	lumbar_bending	lumbar_rotation
      1.17100000	      3.50802580	      6.92634607	     -2.87603961	      0.10633372	      1.02089085	      0.25240922	     14.62013371	     -8.17015621	     -2.81960097	    -61.92849001	      7.33675987	    -15.07390207	      1.09473012	      4.81065503	      9.90497975	     -0.75679495	     -8.97642000	      0.95085584	    -13.60862626	      6.75209932	    -14.69624176	     -8.71025536	      5.01029336
      1.17516667	      3.46070449	      6.81711090	     -2.84931442	      0.11145439	      1.02155655	      0.25226373	     15.08557072	     -7.93937473	     -2.73840556	    -61.11485639	      7.45830762	    -14.98095172	      1.09749511	      4.39826203	      9.81832319	     -0.67225942	     -8.72752236	      1.06984519	    -13.60018666	      6.73606536	    -14.68367658	     -8.57685730	      4.92946928
      1.17933333	      3.43706123	      6.69615158	     -2.78937790	      0.11656277	      1.02224834	      0.25210280	     15.48854260	     -7.70361641	     -2.70049168	    -60.21674418	      7.53712764	    -14.87311595	      1.10403657	      3.96253673	      9.71997904	     -0.53714634	     -8.48959206	      1.18896735	    -13.61070864	      6.71312550	    -14.70292474	     -8.44265764	      4.79507763
      1.18350000	      3.40698378	      6.58706379	     -2.72932108	      0.12170175	      1.02290134	      0.25194525	     15.88308369	     -7.48388070	     -2.66823849	    -59.26743907	      7.58864709	    -14.77644137	      1.11433097	      3.52065269	      9.63259307	     -0.40166601	     -8.22332253	      1.30237212	    -13.61916141	      6.68804732	    -14.71388225	     -8.31257529	      4.63685400
      1.18766667	      3.40003369	      6.50037197	     -2.65817103	      0.12683627	      1.02353398	      0.25177597	     16.23877665	     -7.29985239	     -2.65720877	    -58.27524006	      7.60650480	    -14.70952763	      1.13971954	      3.04138927	      9.57222036	     -0.21791193	     -7.92899961	      1.41833623	    -13.66799993	      6.63578335	    -14.75400670	     -8.20551688	      4.38363640
      1.19183333	      3.33590244	      6.39238651	     -2.59680873	      0.13199720	      1.02405943	      0.25164240	     16.63754579	     -7.07892034	     -2.62673614	    -57.22513486	      7.62166739	    -14.60371531	      1.15438478	      2.64059896	      9.47689442	     -0.12159986	     -7.67016180	      1.51734738	    -13.64585722	      6.61176395	    -14.71748313	     -8.07670280	      4.27300070
      1.19600000	      3.29353740	      6.29440287	     -2.52423522	      0.13716212	      1.02457931	      0.25150326	     16.99261198	     -6.87932131	     -2.62136934	    -56.12695830	      7.59698721	    -14.53099656	      1.16965171	      2.20915879	      9.39229104	     -0.00425127	     -7.39669443	      1.62830135	    -13.62014131	      6.58773988	    -14.71011584	     -7.95374229	      4.12261851
      1.20016667	      3.25241535	      6.20826205	     -2.44700958	      0.14232788	      1.02503934	      0.25136465	     17.33323745	     -6.69756074	     -2.62501579	    -54.99350519	      7.55440651	    -14.47838601	      1.18605060	      1.77494649	      9.31904179	      0.11665940	     -7.11848438	      1.74027169	    -13.59840747	      6.56304112	    -14.70148277	     -7.84659029	      3.94706968
      1.20433333	      3.21364227	      6.12716436	     -2.35509482	      0.14749863	      1.02547171	      0.25121409	     17.65142430	     -6.52856136	     -2.65117141	    -53.81655639	      7.46572803	    -14.49806719	      1.21829306	      1.32942715	      9.25213391	      0.28209091	     -6.82369530	      1.86557380	    -13.60307638	      6.51428428	    -14.70369701	     -7.74340385	      3.67147647
      1.20850000	      3.14406906	      6.04866820	     -2.27776251	      0.15268966	      1.02580884	      0.25109080	     17.99212066	     -6.36179747	     -2.66846672	    -52.60746989	      7.40170858	    -14.42418917	      1.23428846	      0.92877556	      9.18037391	      0.36554038	     -6.54810146	      1.95409942	    -13.56449688	      6.49110357	    -14.65329072	     -7.64133356	      3.54182800
      1.21266667	      3.07832308	      5.97389912	     -2.18632129	      0.15787629	      1.02610148	      0.25095690	     18.31065455	     -6.20611128	     -2.70651314	    -51.36192832	      7.29822365	    -14.41344732	      1.24967389	      0.52287844	      9.11285779	      0.48117036	     -6.27196148	      2.06743636	    -13.52936747	      6.46676535	    -14.61097405	     -7.54193889	      3.36309297
      1.21683333	      3.01866375	      5.90356949	     -2.09571732	      0.16307338	      1.02636386	      0.25082933	     18.60776501	     -6.06108031	     -2.75274977	    -50.08581169	      7.18006587	    -14.41270523	      1.26333392	      0.10650879	      9.04785393	      0.59079633	     -5.98731927	      2.17698235	    -13.49157372	      6.44405331	    -14.57741234	     -7.44673711	      3.17567736
      1.22100000	      2.96587750	      5.85872300	     -1.99992176	      0.16826289	      1.02656741	      0.25070677	     18.89039101	     -5.94955208	     -2.80985458	    -48.79419123	      7.03490138	    -14.49289493	      1.28877236	     -0.32348857	      9.01097439	      0.73387438	     -5.68762915	      2.30578542	    -13.48254593	      6.40262268	    -14.55472772	     -7.38438673	      2.88811484
      1.22516667	      2.87678742	      5.80245616	     -1.91160468	      0.17346982	      1.02668598	      0.25059132	     19.19536435	     -5.82772124	     -2.86804927	    -47.46838516	      6.92366024	    -14.43783103	      1.30209190	     -0.69978789	      8.95689919	      0.81857467	     -5.41558305	      2.39072554	    -13.43749044	      6.38066911	    -14.48045166	     -7.30303570	      2.74398891
      1.22933333	      2.81656437	      5.74491538	     -1.81182613	      0.17867663	      1.02680731	      0.25047454	     19.44785943	     -5.71121030	     -2.94753302	    -46.10794746	      6.75370555	    -14.52113916	      1.32523125	     -1.11971647	      8.90183145	      0.95623413	     -5.12239784	      2.52485576	    -13.41191220	      6.34139454	    -14.44823426	     -7.22710263	      2.48282035
      1.23350000	      2.72146097	      5.69529743	     -1.72331232	      0.18389955	      1.02683038	      0.25036414	     19.73077071	     -5.60788795	     -3.02738653	    -44.73343753	      6.63473897	    -14.45490150	      1.33708208	     -1.48813539	      8.85217265	      1.03183994	     -4.85279841	      2.61274623	    -13.36356634	      6.32149049	    -14.36228703	     -7.15199513	      2.34517085
      1.23766667	      2.65024777	      5.65169453	     -1.62470971	      0.18911315	      1.02683148	      0.25026306	     19.97158333	     -5.51492335	     -3.12123783	    -43.33452228	      6.46529239	    -14.51969578	      1.36156032	     -1.89137235	      8.80819349	      1.16678063	     -4.56773713	      2.74797665	    -13.33665573	      6.28346061	    -14.31670766	     -7.09129784	      2.08090287
      1.24183333	      2.54975877	      5.61678357	     -1.53281736	      0.19434271	      1.02674768	      0.25016802	     20.23520836	     -5.43604859	     -3.22034783	    -41.92225453	      6.32600887	    -14.49236584	      1.38917633	     -2.25499121	      8.77150391	      1.26991635	     -4.29696553	      2.85891564	    -13.30231504	      6.24651463	    -14.22927505	     -7.03620500	      1.88172885
      1.24600000	      2.43605918	      5.57760598	     -1.45348842	      0.19960273	      1.02661078	      0.25009488	     20.50109277	     -5.35628051	     -3.33089142	    -40.49400633	      6.21449403	    -14.37753396	      1.40207535	     -2.60477914	      8.72757715	      1.32988210	     -4.02420851	      2.95352648	    -13.24845110	      6.23052030	    -14.12564094	     -6.98249346	      1.76704943
      1.25016667	      2.36966516	      5.54675978	     -1.35412318	      0.20480841	      1.02649206	      0.25001954	     20.69396998	     -5.28844658	     -3.44761038	    -39.03211309	      6.05267849	    -14.37942644	      1.43418622	     -2.99815763	      8.69205021	      1.46258388	     -3.76837198	      3.09193816	    -13.21154212	      6.19610189	    -14.07959339	     -6.93145376	      1.51370199
      1.25433333	      2.24474050	      5.51796196	     -1.26568450	      0.21006878	      1.02624694	      0.24996181	     20.94221241	     -5.22424740	     -3.57082312	    -37.56505042	      5.92128164	    -14.28409069	      1.47431944	     -3.32723531	      8.65602168	      1.55552353	     -3.51645832	      3.21122301	    -13.17279731	      6.16096156	    -13.95719376	     -6.88327419	      1.32434684
      1.25850000	      2.14982278	      5.49216414	     -1.18372822	      0.21531883	      1.02601047	      0.24992608	     21.14406754	     -5.16685397	     -3.70510195	    -36.08006672	      5.80128880	    -14.14282627	      1.51656775	     -3.68624812	      8.62180023	      1.63840783	     -3.26707578	      3.32802188	    -13.12194485	      6.12996048	    -13.87635244	     -6.84520573	      1.16210224
      1.26266667	      2.04072347	      5.46380033	     -1.10309376	      0.22059055	      1.02572749	      0.24990006	     21.34185574	     -5.10676570	     -3.84147665	    -34.56950114	      5.68186128	    -13.96208661	      1.55213417	     -4.02280169	      8.58360969	      1.70577644	     -3.03479842	      3.44170923	    -13.06648205	      6.10816783	    -13.76245849	     -6.79101060	      1.02992630
      1.26683333	      1.92099237	      5.44764048	     -1.02953069	      0.22586534	      1.02535312	      0.24990619	     21.55056510	     -5.06044928	     -3.98562250	    -33.06860409	      5.56982581	    -13.75748373	      1.59096822	     -4.34695924	      8.55620256	      1.76888978	     -2.80363700	      3.57096726	    -13.01043772	      6.08861076	    -13.64138414	     -6.76212017	      0.89146566
